<svg id="Слой_1" data-name="Слой 1" xmlns="http://www.w3.org/2000/svg" viewBox="0 0 128 128"><defs><style>.cls-1{fill:#c25096;}.cls-2{fill:#fff;}.cls-3{fill:none;stroke:#c25096;stroke-linecap:round;stroke-linejoin:round;stroke-width:3px;}</style></defs><title>NTFS_icon_restart</title><circle class="cls-1" cx="65.47" cy="106.22" r="18.51"/><path class="cls-2" d="M70.82,113.74H60.58v-2.15l3.68-3.72a31.17,31.17,0,0,0,2.13-2.32,5,5,0,0,0,.73-1.2,3.12,3.12,0,0,0,.22-1.14,1.67,1.67,0,0,0-.49-1.31,1.87,1.87,0,0,0-1.3-.43,3.73,3.73,0,0,0-1.65.39A8.61,8.61,0,0,0,62.23,103l-1.69-2a10.52,10.52,0,0,1,1.8-1.3,6.38,6.38,0,0,1,1.55-.59,7.8,7.8,0,0,1,1.88-.2,5.5,5.5,0,0,1,2.43.5,3.86,3.86,0,0,1,1.63,1.4,3.7,3.7,0,0,1,.58,2.06,5.17,5.17,0,0,1-.35,1.9A7.36,7.36,0,0,1,69,106.57a26.69,26.69,0,0,1-2.62,2.65L64.44,111v.14h6.38Z"/><path class="cls-3" d="M34.83,46.31A31.56,31.56,0,0,1,89.48,18.49"/><polyline class="cls-3" points="90.24 5.45 90.24 19.73 77.73 19.73"/><path class="cls-3" d="M95.1,31.67A31.56,31.56,0,0,1,40.45,59.49"/><polyline class="cls-3" points="39.69 72.53 39.69 58.25 52.2 58.25"/></svg>